                  <svg
                    version="1.1"
                    id="Layer_1"
                    xmlns="http://www.w3.org/2000/svg"
                    x="0px"
                    y="0px"
                    width="75.562px"
                    height="34.647px"
                    viewBox="0 0 75.562 34.647"
                    enable-background="new 0 0 75.562 34.647"
                  >
                    <g>
                      <path
                        fill="#8DC63F"
                        d="M17.322,34.647c-4.777,0-9.117-1.94-12.247-5.073C1.941,26.442,0,22.104,0,17.324
		c0-4.78,1.941-9.119,5.075-12.251C8.205,1.941,12.545,0,17.322,0c4.781,0,9.12,1.941,12.251,5.073
		c3.133,3.132,5.074,7.471,5.074,12.251c0,4.779-1.941,9.118-5.074,12.25c-3.131,3.133-7.47,5.073-12.249,5.073l0,0H17.322z
		 M6.862,6.863c-2.678,2.682-4.331,6.37-4.331,10.461c0,4.089,1.653,7.778,4.331,10.461c2.682,2.678,6.372,4.331,10.46,4.332
		c4.09-0.001,7.78-1.654,10.461-4.332c2.68-2.683,4.334-6.372,4.334-10.461c0-4.091-1.654-7.779-4.334-10.461
		c-2.681-2.679-6.371-4.332-10.461-4.333C13.234,2.531,9.544,4.185,6.862,6.863"
                      />
                      <path
                        fill="#2A4C8F"
                        d="M19.466,32.848c-4.212,0.001-8.05-1.715-10.806-4.476c-2.762-2.757-4.478-6.596-4.476-10.805
		C4.183,13.356,5.898,9.52,8.66,6.764c2.756-2.762,6.594-4.479,10.806-4.477c4.208-0.002,8.046,1.715,10.803,4.477
		c2.761,2.756,4.476,6.593,4.476,10.804c0,4.209-1.715,8.048-4.476,10.805c-2.757,2.76-6.591,4.476-10.799,4.476H19.466z
		 M12.514,10.616c-1.783,1.788-2.879,4.227-2.879,6.951c0,2.723,1.096,5.163,2.879,6.95c1.787,1.784,4.228,2.879,6.952,2.88
		c2.722-0.001,5.161-1.096,6.948-2.88c1.785-1.787,2.881-4.228,2.881-6.95c0-2.725-1.096-5.163-2.881-6.951
		c-1.787-1.782-4.227-2.879-6.948-2.88C16.741,7.737,14.301,8.834,12.514,10.616"
                      />
                      <path
                        fill="#373736"
                        d="M56.687,20.292c0,3.716,3.21,4.95,4.788,4.953c2.773,0.003,4.479-1.952,4.612-3.421h-2.648
		c-0.312,1.018-1.449,1.154-2.054,1.141c-1.103-0.023-2.312-0.852-2.312-2.673c0-2.039,1.519-2.733,2.401-2.733
		c1.276,0,1.964,0.962,1.964,1.199h0.126h2.439c-0.178-0.74-1.049-3.422-4.529-3.422C59.02,15.336,56.687,17.156,56.687,20.292"
                      />
                      <path
                        fill="#373736"
                        d="M37.223,18.497h0.43h1.961c0.082-0.178,0.556-1.2,2.043-1.2c0.596,0,1.027,0.078,1.282,0.262
		c0.353,0.248,0.429,0.495,0.429,0.679c0,0.201-0.085,0.345-0.168,0.428c-0.145,0.176-0.344,0.291-0.604,0.343
		c-0.199,0.052-0.479,0.115-0.845,0.167c-0.282,0.031-2.021,0.28-2.484,0.343c-1.399,0.2-2.386,1.195-2.386,2.65
		c0,2.253,1.939,2.649,2.386,2.815c0.461,0.114,0.921,0.179,1.37,0.179c0.718,0,1.281-0.084,1.707-0.262
		c0.49-0.177,0.888-0.428,1.203-0.771c0.05,0.23,0.111,0.429,0.166,0.604c0.029,0.084,0.051,0.167,0.081,0.25h0.219h2.004
		c-0.115-0.166-0.262-0.752-0.262-1.532v-4.869c0-1.049-0.656-3.246-4.099-3.246C38.609,15.336,37.223,17.457,37.223,18.497
		 M43.449,20.457v0.647c0,0,0.098,0.802-0.167,1.063c-0.679,0.68-1.48,0.855-2.387,0.855c-0.544,0-1.629-0.091-1.629-0.855
		c0-0.871,0.946-1.046,1.88-1.105c0.541-0.035,1-0.062,1.365-0.178C42.919,20.802,43.231,20.656,43.449,20.457"
                      />
                      <path
                        fill="#373736"
                        d="M49.176,15.64h-2.564l3.669,9.471c0,0-0.407,1.69-1.616,2.053c-0.248,0.074-0.545,0.053-0.855,0v2.222
		c0.494,0.083,0.871,0.083,1.367,0c0.451-0.075,1.988-0.282,2.98-2.647l4.059-10.765l0.125-0.333h-2.637l-2.066,6.278l-0.156,0.46
		l-2.045-5.997L49.176,15.64z"
                      />
                      <path
                        fill="#8E9090"
                        d="M20.538,16.026c-0.481,0.021-0.87,0.195-1.17,0.517c-0.306,0.326-0.468,0.724-0.485,1.196v2.34
		c0.018,0.244,0.152,0.376,0.402,0.397h0.396c0.111,0,0.209,0.049,0.285,0.14c0.077,0.098,0.111,0.2,0.111,0.319v4.387v0.083
		c0.035,0.057,0.084,0.126,0.146,0.203c0.09,0.076,0.195,0.111,0.313,0.111h2.451c0.243-0.022,0.374-0.154,0.397-0.397v-4.387
		c0-0.119,0.047-0.222,0.138-0.319c0.099-0.091,0.202-0.14,0.314-0.14h0.403c0.301-0.021,0.453-0.153,0.453-0.397v-2.34
		c-0.021-0.473-0.182-0.87-0.48-1.196c-0.328-0.321-0.732-0.495-1.226-0.517H20.538z"
                      />
                      <path
                        fill="#8E9090"
                        d="M20.254,13.75c0.018,0.438,0.166,0.808,0.452,1.114c0.285,0.298,0.648,0.46,1.085,0.479
		c0.439-0.02,0.795-0.182,1.078-0.479c0.288-0.307,0.44-0.676,0.462-1.114c-0.021-0.438-0.174-0.802-0.462-1.086
		c-0.283-0.286-0.639-0.432-1.078-0.454c-0.437,0.022-0.8,0.168-1.085,0.454C20.42,12.948,20.271,13.312,20.254,13.75"
                      />
                      <path
                        fill="#A7A9AC"
                        d="M11.436,18.881c0-5.67,4.598-10.267,10.267-10.268c5.673,0.001,10.267,4.598,10.269,10.268
		c-0.002,5.672-4.596,10.269-10.269,10.269C16.033,29.149,11.436,24.553,11.436,18.881 M15.337,12.516
		c-1.63,1.631-2.638,3.878-2.638,6.365c0,2.488,1.008,4.734,2.638,6.366c1.632,1.631,3.878,2.637,6.365,2.637
		c2.489,0,4.735-1.006,6.365-2.637c1.633-1.632,2.639-3.878,2.639-6.366c0-2.487-1.006-4.734-2.639-6.365
		c-1.63-1.631-3.876-2.637-6.365-2.638C19.215,9.879,16.969,10.885,15.337,12.516"
                      />
                      <polygon
                        fill="#373736"
                        points="53.377,30.893 53.961,26.796 54.029,26.796 55.693,30.158 57.346,26.796 57.412,26.796 
		58.001,30.893 57.602,30.893 57.194,27.963 55.744,30.893 55.641,30.893 54.174,27.941 53.771,30.893 	"
                      />
                      <polygon
                        fill="#373736"
                        points="59.952,26.795 62.305,26.795 62.305,27.197 60.361,27.197 60.361,28.482 62.287,28.482 
		62.287,28.884 60.361,28.884 60.361,30.493 62.287,30.493 62.287,30.893 59.952,30.893 	"
                      />
                      <path
                        fill="#373736"
                        d="M64.154,30.893v-4.098h0.852c0.612,0,1.057,0.05,1.333,0.147c0.398,0.14,0.709,0.381,0.934,0.727
		c0.223,0.343,0.335,0.752,0.335,1.228c0,0.41-0.089,0.773-0.266,1.085c-0.179,0.311-0.407,0.542-0.69,0.69
		c-0.284,0.148-0.682,0.221-1.193,0.221H64.154z M64.548,30.508h0.474c0.566,0,0.962-0.035,1.178-0.105
		c0.311-0.103,0.553-0.281,0.729-0.543c0.178-0.26,0.265-0.578,0.265-0.955c0-0.396-0.096-0.733-0.287-1.014
		c-0.19-0.281-0.46-0.474-0.799-0.576c-0.258-0.08-0.68-0.117-1.269-0.117h-0.29V30.508z"
                      />
                      <rect
                        x="69.483"
                        y="26.795"
                        fill="#373736"
                        width="0.411"
                        height="4.098"
                      />
                      <path
                        fill="#373736"
                        d="M73.651,26.796l1.911,4.097H75.12l-0.645-1.346h-1.767l-0.64,1.346h-0.457l1.938-4.097H73.651z
		 M73.599,27.666l-0.701,1.483h1.4L73.599,27.666z"
                      />
                    </g>
                  </svg>